<svg xmlns="http://www.w3.org/2000/svg" viewBox="0 0 48 48"><path fill="#f4f4f6" d="M37.86 23.84a5 5 0 0 0 4.7-8.33l-10.05-10a5 5 0 0 0-8.33 4.7L21 7A9.9 9.9 0 0 0 7 21l3.16 3.16a5 5 0 0 0-4.7 8.33l10 10a5 5 0 0 0 8.33-4.7L27 41a9.9 9.9 0 1 0 14-14Z"/><path fill="#e2dff4" d="M3.02 12h2v1h-2zM6 9h1v2H6zM44 12.5a1.5 1.5 0 1 1-1.5-1.5 1.5 1.5 0 0 1 1.5 1.5Zm-2 0a.5.5 0 1 0 .5-.5.5.5 0 0 0-.5.5Z"/><circle cx="26.52" cy="44.5" r="1.5" fill="#f4f4f6"/><circle cx="21.52" cy="3.5" r="1.5" fill="#f4f4f6"/><path fill="#e2dff4" d="M5.52 37A1.5 1.5 0 1 1 7 35.49 1.5 1.5 0 0 1 5.52 37Zm0-2a.5.5 0 0 0-.5.5.5.5 0 0 0 1 0 .5.5 0 0 0-.5-.5ZM41.02 38h1v2h-1zM43.02 36h2v1h-2z"/><path fill="#d6dbe1" d="M12 24A15 15 0 0 1 25.5 9.08 14.76 14.76 0 0 0 24 9a15 15 0 0 0 0 30 14.76 14.76 0 0 0 1.5-.08A15 15 0 0 1 12 24Z"/><path fill="#322f56" d="M24 40a16 16 0 1 1 16-16 16 16 0 0 1-16 16Zm0-30a14 14 0 1 0 14 14 14 14 0 0 0-14-14Z"/><path fill="#322f56" d="M29.49 27.13a1 1 0 0 0-1.36.38 4.72 4.72 0 0 1-8.26 0 1 1 0 1 0-1.74 1A6.63 6.63 0 0 0 24 31.94a6.63 6.63 0 0 0 5.87-3.45 1 1 0 0 0-.38-1.36Z"/><circle cx="29" cy="20" r="2" fill="#66f"/><circle cx="19" cy="20" r="2" fill="#66f"/></svg>